<?xml version="1.0" encoding="iso-8859-1"?>
<!-- Generator: Adobe Illustrator 19.0.0, SVG Export Plug-In . SVG Version: 6.00 Build 0)  -->
<svg version="1.1" id="Layer_1" xmlns="http://www.w3.org/2000/svg" xmlns:xlink="http://www.w3.org/1999/xlink" x="0px" y="0px"
	 viewBox="0 0 511.999 511.999" style="enable-background:new 0 0 511.999 511.999;" xml:space="preserve">
<g>
	<g>
		<circle cx="208.984" cy="56.572" r="39.611"/>
	</g>
</g>
<g>
	<g>
		<path d="M449.002,38.288c-34.792,0-62.998,9.656-62.998,21.569c0,5.922,6.975,11.285,18.262,15.183
			c-122.418,28.112-157.318,36.515-157.318,36.515h-88.419l-83.078,14.361c-1.907,0.319-3.745,0.958-5.439,1.89L8.86,161.494
			c-8.28,4.562-11.294,14.973-6.732,23.254c4.558,8.275,14.965,11.297,23.252,6.733L83.974,159.2l74.655-12.476l0.334,114.969
			l-57.748,204.309c-3.428,12.129,3.625,24.741,15.756,28.171c12.139,3.429,24.745-3.634,28.171-15.755l52.69-186.414l36.529-0.106
			l45.882,20.654l-46.187,93.214c-5.597,11.294-0.977,24.987,10.317,30.584c11.304,5.6,24.992,0.969,30.584-10.317l56.703-114.437
			c2.752-5.555,3.127-11.991,1.036-17.828c-2.091-5.838-6.466-10.573-12.119-13.117l-60.402-27.19l-0.32-110.309l169.13-38.641
			c10.163-2.322,16.128-13.264,11.973-23.266c38.003,1.662,71.044-8.478,71.044-21.387C512,47.945,483.796,38.288,449.002,38.288z"
			/>
	</g>
</g>
<g>
</g>
<g>
</g>
<g>
</g>
<g>
</g>
<g>
</g>
<g>
</g>
<g>
</g>
<g>
</g>
<g>
</g>
<g>
</g>
<g>
</g>
<g>
</g>
<g>
</g>
<g>
</g>
<g>
</g>
</svg>
