<svg id="Capa_1" enable-background="new 0 0 512 512" height="512" viewBox="0 0 512 512" width="512" xmlns="http://www.w3.org/2000/svg"><g><path d="m0 106h256v300h-256z" fill="#dae0e7"/><path d="m256 106h256v300h-256z" fill="#c0c8d2"/><path d="m512 406c0-18.827-8.585-36.2-23.555-47.666 0 0-195.315-149.466-196.043-149.981.02-.025-96.402-.03-96.402-.03l60 212.677h256z" fill="#a6b0bd"/><path d="m219.574 208.319s-195.813 149.873-195.99 150.018c-14.99 11.453-23.584 28.829-23.584 47.663v15h256v-212.677z" fill="#c0c8d2"/><path d="m256 91-45 112.5 45 112.5c13.283 0 25.878-4.263 36.422-12.328.708-.541 196.023-150.006 196.023-150.006 14.97-11.466 23.555-28.839 23.555-47.666v-15z" fill="#dae0e7"/><path d="m0 91v15c0 18.834 8.594 36.21 23.578 47.672.184.136 195.997 150.009 195.997 150.009 10.557 8.059 23.153 12.319 36.425 12.319v-225z" fill="#edeff3"/></g></svg>